<svg width="11" height="14" viewBox="0 0 11 14" fill="none" xmlns="http://www.w3.org/2000/svg">
<path d="M0.5 1.5V9.41325H9.56253C10.0822 9.41325 10.342 9.41325 10.4055 9.25784C10.4691 9.10244 10.2836 8.92043 9.91277 8.55642L6.79083 5.49209L6.79083 5.49208C6.65395 5.35773 6.58551 5.29056 6.58551 5.20662C6.58551 5.12269 6.65395 5.05551 6.79083 4.92116L9.91277 1.85683C10.2836 1.49282 10.4691 1.31081 10.4055 1.15541C10.342 1 10.0822 1 9.56253 1H1C0.764298 1 0.646447 1 0.573223 1.07322C0.5 1.14645 0.5 1.2643 0.5 1.5Z" fill="#89E0D6"/>
<path d="M0.5 9.41325V1.5C0.5 1.2643 0.5 1.14645 0.573223 1.07322C0.646447 1 0.764298 1 1 1H9.56253C10.0822 1 10.342 1 10.4055 1.15541C10.4691 1.31081 10.2836 1.49282 9.91277 1.85683L6.79083 4.92116C6.65395 5.05551 6.58551 5.12269 6.58551 5.20662C6.58551 5.29056 6.65395 5.35774 6.79083 5.49209L9.91277 8.55642C10.2836 8.92043 10.4691 9.10244 10.4055 9.25784C10.342 9.41325 10.0822 9.41325 9.56253 9.41325H0.5ZM0.5 9.41325V12.7785" stroke="#89E0D6" stroke-linecap="round"/>
</svg>
