<svg width="19" height="18" viewBox="0 0 19 18" fill="none" xmlns="http://www.w3.org/2000/svg">
<path d="M9.49999 0.00463867C4.25308 0.00463867 0 3.44728 0 7.69454C0 10.4395 1.77759 12.8524 4.45312 14.2094C4.30697 14.7252 3.51774 17.5245 3.48577 17.7439C3.48577 17.7439 3.4675 17.909 3.57163 17.9718C3.60636 17.9902 3.6444 18.001 3.68338 18.0036C3.72236 18.0061 3.76143 18.0004 3.79817 17.9868C4.09687 17.9437 7.26384 15.6592 7.8174 15.2672C8.37494 15.3463 8.93716 15.3854 9.49999 15.3844C14.7469 15.3844 19 11.9409 19 7.69454C19 3.44821 14.7469 0.00463867 9.49999 0.00463867Z" fill="black"/>
</svg>
