<svg width="20" height="20" viewBox="0 0 20 20" fill="none" xmlns="http://www.w3.org/2000/svg">
<path d="M13.3059 5.56778L11.3451 1.59532C10.7948 0.480566 9.20519 0.480567 8.65494 1.59532L6.69409 5.56778C6.62132 5.7152 6.48073 5.81743 6.31805 5.84121L1.93147 6.48237C0.701599 6.66214 0.211421 8.1739 1.10181 9.04114L4.27434 12.1312C4.39228 12.2461 4.44611 12.4116 4.41828 12.5739L3.66977 16.9381C3.45959 18.1636 4.74592 19.098 5.84636 18.5193L9.76727 16.4573C9.91297 16.3807 10.087 16.3807 10.2327 16.4573L14.1536 18.5193C15.2541 19.098 16.5404 18.1635 16.3302 16.9381L15.5817 12.5739C15.5539 12.4116 15.6077 12.2461 15.7257 12.1312L18.8982 9.04114C19.7886 8.1739 19.2984 6.66214 18.0685 6.48237L13.6819 5.84121C13.5193 5.81743 13.3787 5.7152 13.3059 5.56778Z" fill="white" stroke="#CCCCCC" stroke-linecap="round" stroke-linejoin="round"/>
</svg>
